<?xml version="1.0"?><svg width="793.7007874015749" height="1122.5196850393702" xmlns="http://www.w3.org/2000/svg">
 <title>white thumbs up</title>

 <metadata id="metadata8594">image/svg+xml</metadata>
 <g>
  <title>Layer 1</title>
  <g externalResourcesRequired="false" id="layer1">
   <path fill="#ffffff" stroke-width="4.916549" d="m177.205002,623.197998c0,0 29.819,-7.614014 56.466995,-43.144043c10.785004,-15.22699 20.302002,-43.142944 27.281006,-67.886963c6.345001,-13.957977 4.441986,-20.302002 34.260986,-32.356995c19.033997,-10.786011 48.854004,-32.992004 62.177002,-68.522003c3.807007,-15.860992 -5.075989,-51.390991 27.282013,-50.756989c34.260986,0 32.356995,31.088989 34.260986,52.026001c-2.537994,37.432983 -31.722992,73.596985 -31.722992,73.596985l-25.378998,41.240051c0,0 9.444,-0.531006 39.35199,1.135925c23.714996,1.321045 48.550018,-3.006958 81.830017,7.112c75.501007,38.067993 11.42099,64.715027 11.42099,64.715027c41.239014,29.820007 4.440979,61.54303 4.440979,61.54303c26.013,46.949951 -16.46698,56.714966 -13.957977,57.100952c8.248016,1.269043 36.798004,31.08905 -12.054993,57.101013c0,0 -53.295013,23.475037 -82.480011,23.475037c-19.033997,3.172974 -73.596985,3.806946 -114.837006,-13.322998c-48.852997,-8.248047 -38.701996,2.537964 -79.306992,10.151001l-19.033997,-173.207031z" id="path3904-6" mask="none"/>
  </g>
 </g>
</svg>